<?xml version="1.0" encoding="UTF-8" standalone="no"?>
<!-- Created with Inkscape (http://www.inkscape.org/) -->

<svg
   xmlns:dc="http://purl.org/dc/elements/1.1/"
   xmlns:cc="http://creativecommons.org/ns#"
   xmlns:rdf="http://www.w3.org/1999/02/22-rdf-syntax-ns#"
   xmlns:svg="http://www.w3.org/2000/svg"
   xmlns="http://www.w3.org/2000/svg"
   xmlns:sodipodi="http://sodipodi.sourceforge.net/DTD/sodipodi-0.dtd"
   xmlns:inkscape="http://www.inkscape.org/namespaces/inkscape"
   width="1052.3622"
   height="744.09448"
   id="svg2"
   version="1.1"
   inkscape:version="0.47 r22583"
   sodipodi:docname="New document 1">
  <defs
     id="defs4">
    <inkscape:perspective
       sodipodi:type="inkscape:persp3d"
       inkscape:vp_x="0 : 526.18109 : 1"
       inkscape:vp_y="0 : 1000 : 0"
       inkscape:vp_z="744.09448 : 526.18109 : 1"
       inkscape:persp3d-origin="372.04724 : 350.78739 : 1"
       id="perspective10" />
  </defs>
  <sodipodi:namedview
     id="base"
     pagecolor="#ffffff"
     bordercolor="#666666"
     borderopacity="1.0"
     inkscape:pageopacity="0.0"
     inkscape:pageshadow="2"
     inkscape:zoom="0.682709"
     inkscape:cx="511.49375"
     inkscape:cy="332.08027"
     inkscape:document-units="px"
     inkscape:current-layer="layer1"
     showgrid="false"
     inkscape:window-width="1236"
     inkscape:window-height="756"
     inkscape:window-x="44"
     inkscape:window-y="0"
     inkscape:window-maximized="0" />
  <metadata
     id="metadata7">
    <rdf:RDF>
      <cc:Work
         rdf:about="">
        <dc:format>image/svg+xml</dc:format>
        <dc:type
           rdf:resource="http://purl.org/dc/dcmitype/StillImage" />
        <dc:title></dc:title>
      </cc:Work>
    </rdf:RDF>
  </metadata>
  <g
     inkscape:label="Layer 1"
     inkscape:groupmode="layer"
     id="layer1"
     transform="translate(0,-308.2677)">
    <g
       transform="translate(0,-565.57741)"
       id="g3729">
      <g
         id="g3731">
        <rect
           style="fill:#f9f9f9;fill-opacity:1;fill-rule:nonzero;stroke:#000000;stroke-width:1.86851025;stroke-linecap:round;stroke-miterlimit:4;stroke-opacity:1;stroke-dasharray:none"
           id="rect3733"
           width="118.77647"
           height="127.56499"
           x="0.93425512"
           y="924.04572" />
        <path
           style="fill:#000000;fill-opacity:1;fill-rule:nonzero;stroke:#000000;stroke-width:0.23372006;stroke-linecap:round;stroke-miterlimit:4;stroke-opacity:1"
           d="m 0.11686003,874.27671 120.14911997,0 41.03999,58.65639 -161.18910997,0 0,-58.65639 z"
           id="path3735"
           sodipodi:nodetypes="ccccc" />
      </g>
    </g>
    <g
       id="g3721"
       transform="translate(0,-445.46767)">
      <g
         id="g3723">
        <rect
           y="924.04572"
           x="0.93425512"
           height="127.56499"
           width="118.77647"
           id="rect3725"
           style="fill:#f9f9f9;fill-opacity:1;fill-rule:nonzero;stroke:#000000;stroke-width:1.86851025;stroke-linecap:round;stroke-miterlimit:4;stroke-opacity:1;stroke-dasharray:none" />
        <path
           sodipodi:nodetypes="ccccc"
           id="path3727"
           d="m 0.11686003,874.27671 120.14911997,0 41.03999,58.65639 -161.18910997,0 0,-58.65639 z"
           style="fill:#000000;fill-opacity:1;fill-rule:nonzero;stroke:#000000;stroke-width:0.23372006;stroke-linecap:round;stroke-miterlimit:4;stroke-opacity:1" />
      </g>
    </g>
    <g
       transform="translate(0,-326.82268)"
       id="g3713">
      <g
         id="g3715">
        <rect
           style="fill:#f9f9f9;fill-opacity:1;fill-rule:nonzero;stroke:#000000;stroke-width:1.86851025;stroke-linecap:round;stroke-miterlimit:4;stroke-opacity:1;stroke-dasharray:none"
           id="rect3717"
           width="118.77647"
           height="127.56499"
           x="0.93425512"
           y="924.04572" />
        <path
           style="fill:#000000;fill-opacity:1;fill-rule:nonzero;stroke:#000000;stroke-width:0.23372006;stroke-linecap:round;stroke-miterlimit:4;stroke-opacity:1"
           d="m 0.11686003,874.27671 120.14911997,0 41.03999,58.65639 -161.18910997,0 0,-58.65639 z"
           id="path3719"
           sodipodi:nodetypes="ccccc" />
      </g>
    </g>
    <g
       id="g3703"
       transform="translate(0,-206.71294)">
      <g
         id="g3709">
        <rect
           y="924.04572"
           x="0.93425512"
           height="127.56499"
           width="118.77647"
           id="rect3705"
           style="fill:#f9f9f9;fill-opacity:1;fill-rule:nonzero;stroke:#000000;stroke-width:1.86851025;stroke-linecap:round;stroke-miterlimit:4;stroke-opacity:1;stroke-dasharray:none" />
        <path
           sodipodi:nodetypes="ccccc"
           id="path3707"
           d="m 0.11686003,874.27671 120.14911997,0 41.03999,58.65639 -161.18910997,0 0,-58.65639 z"
           style="fill:#000000;fill-opacity:1;fill-rule:nonzero;stroke:#000000;stroke-width:0.23372006;stroke-linecap:round;stroke-miterlimit:4;stroke-opacity:1" />
      </g>
    </g>
    <g
       id="g2866"
       transform="translate(-852.4862,158.19332)">
      <path
         id="path2818"
         d="m 706.01926,513.36654 c -23.44268,0 -42.46875,18.99482 -42.46875,42.4375 0,22.30645 17.22927,40.59216 39.09375,42.3125 0.37952,6.86567 0.55862,13.71916 0.6875,20.59375 10e-4,0.33274 -0.002,0.66725 0,1 l -8.03125,-0.4375 c -6.05038,7.07393 -13.61895,12.75822 -21.21875,18.0625 -5.126,3.09134 -9.87185,6.62857 -14.46875,10.4375 l 14.34375,1.21875 c 4.39138,-3.83638 9.173,-7.12303 14.03125,-10.34375 5.27734,-3.82701 10.55715,-7.7624 15.40625,-12.15625 0.0663,7.43573 0.12641,14.87981 -0.0937,22.3125 -0.4182,9.18621 -0.79839,18.37451 -1.65625,27.53125 -0.37528,6.31594 -1.19499,12.56476 -1.9375,18.84375 l -1.78125,-0.15625 c -4.84983,5.79027 -9.32538,11.85457 -14.125,17.6875 -5.13608,6.06898 -10.6956,11.76823 -16,17.6875 -3.2502,4.11604 -7.06852,7.66792 -10.78125,11.34375 l 14.3125,1.125 c 3.69714,-3.65942 7.31071,-7.36638 10.5625,-11.4375 5.27056,-5.95582 10.85475,-11.62822 15.9375,-17.75 2.54131,-3.12382 4.96998,-6.35517 7.5,-9.5 3.77472,4.10648 7.74529,8.05806 11.59375,12.09375 5.42883,5.92425 10.04564,12.48916 14.15625,19.375 2.27186,4.01318 4.63127,7.95632 8.65625,10.375 1.62304,0.86036 0.80233,0.45839 2.40625,1.25 l 14.375,-1.65625 c -1.62896,-0.686 -0.79655,-0.29169 -2.4375,-1.15625 -4.25186,-1.8433 -6.57549,-5.67633 -8.84375,-9.5625 -4.22509,-6.92749 -8.87356,-13.59229 -14.25,-19.6875 -5.16882,-5.55306 -10.94951,-10.62028 -15.4375,-16.78125 l -2.0625,0.15625 0.3125,-2 c 0.66375,-6.71396 1.54552,-13.38607 1.9375,-20.125 0.77928,-9.18834 1.01773,-18.41435 1.4375,-27.625 0.21352,-6.19866 0.24856,-12.392 0.21875,-18.59375 0.0318,0.0208 0.0619,0.0418 0.0937,0.0625 5.61159,2.97677 10.96312,6.4158 16.09375,10.15625 4.49994,3.52972 8.35274,7.79074 12.46875,11.75 2.53642,2.52555 5.45366,4.57454 8.125,6.9375 1.29529,1.0294 2.62603,2.01443 3.90625,3.0625 l 14.4375,-1.21875 c -1.20736,-1.14731 -2.57197,-2.14197 -3.9375,-3.09375 -2.71923,-2.35306 -5.59189,-4.43109 -8.28125,-6.84375 -4.19342,-3.97727 -8.12978,-8.23589 -12.59375,-11.90625 -5.05709,-3.81933 -10.38597,-7.33403 -16,-10.28125 -4.12214,-2.48926 -7.84873,-5.55591 -10.4375,-9.6875 l -3.96875,0.25 c -0.003,-0.2397 0.003,-0.47906 0,-0.71875 -0.0993,-7.26373 -0.29955,-14.52988 -0.71875,-21.78125 18.32425,-4.70059 31.875,-21.33469 31.875,-41.125 0,-23.44268 -18.99482,-42.4375 -42.4375,-42.4375 z m 3.9375,185.4375 0.3125,0 -0.34375,0.0312 c 0.01,-0.0108 0.0213,-0.0205 0.0312,-0.0312 z"
         style="fill:#000000;fill-opacity:1;fill-rule:nonzero;stroke:#000000;stroke-width:0.36223447;stroke-linecap:round;stroke-miterlimit:4;stroke-opacity:1;stroke-dasharray:none" />
      <path
         style="fill:#000000;fill-opacity:1;fill-rule:nonzero;stroke:#000000;stroke-width:0.36223447;stroke-linecap:round;stroke-miterlimit:4;stroke-opacity:1;stroke-dasharray:none"
         d="m 449.61052,507.50753 c 23.44268,0 42.46875,18.99482 42.46875,42.4375 0,22.30645 -17.22927,40.59216 -39.09375,42.3125 -0.37952,6.86567 -0.55862,13.71916 -0.6875,20.59375 -0.001,0.33274 0.002,0.66725 0,1 l 8.03125,-0.4375 c 6.05038,7.07393 13.61895,12.75822 21.21875,18.0625 5.126,3.09134 9.87185,6.62857 14.46875,10.4375 l -14.34375,1.21875 c -4.39138,-3.83638 -9.173,-7.12303 -14.03125,-10.34375 -5.27734,-3.82701 -10.55715,-7.7624 -15.40625,-12.15625 -0.0663,7.43573 -0.12641,14.87981 0.0937,22.3125 0.4182,9.18621 0.79839,18.37451 1.65625,27.53125 0.37528,6.31594 1.19499,12.56476 1.9375,18.84375 l 1.78125,-0.15625 c 4.84983,5.79027 9.32538,11.85457 14.125,17.6875 5.13608,6.06898 10.6956,11.76823 16,17.6875 3.2502,4.11604 7.06852,7.66792 10.78125,11.34375 l -14.3125,1.125 c -3.69714,-3.65942 -7.31071,-7.36638 -10.5625,-11.4375 -5.27056,-5.95582 -10.85475,-11.62822 -15.9375,-17.75 -2.54131,-3.12382 -4.96998,-6.35517 -7.5,-9.5 -3.77472,4.10648 -7.74529,8.05806 -11.59375,12.09375 -5.42883,5.92425 -10.04564,12.48916 -14.15625,19.375 -2.27186,4.01318 -4.63127,7.95632 -8.65625,10.375 -1.62304,0.86036 -0.80233,0.45839 -2.40625,1.25 l -14.375,-1.65625 c 1.62896,-0.686 0.79655,-0.29169 2.4375,-1.15625 4.25186,-1.8433 6.57549,-5.67633 8.84375,-9.5625 4.22509,-6.92749 8.87356,-13.59229 14.25,-19.6875 5.16882,-5.55306 10.94951,-10.62028 15.4375,-16.78125 l 2.0625,0.15625 -0.3125,-2 c -0.66375,-6.71396 -1.54552,-13.38607 -1.9375,-20.125 -0.77928,-9.18834 -1.01773,-18.41435 -1.4375,-27.625 -0.21352,-6.19866 -0.24856,-12.392 -0.21875,-18.59375 -0.0318,0.0208 -0.0619,0.0418 -0.0937,0.0625 -5.61159,2.97677 -10.96312,6.4158 -16.09375,10.15625 -4.49994,3.52972 -8.35274,7.79074 -12.46875,11.75 -2.53642,2.52555 -5.45366,4.57454 -8.125,6.9375 -1.29529,1.0294 -2.62603,2.01443 -3.90625,3.0625 l -14.4375,-1.21875 c 1.20736,-1.14731 2.57197,-2.14197 3.9375,-3.09375 2.71923,-2.35306 5.59189,-4.43109 8.28125,-6.84375 4.19342,-3.97727 8.12978,-8.23589 12.59375,-11.90625 5.05709,-3.81933 10.38597,-7.33403 16,-10.28125 4.12214,-2.48926 7.84873,-5.55591 10.4375,-9.6875 l 3.96875,0.25 c 0.003,-0.2397 -0.003,-0.47906 0,-0.71875 0.0993,-7.26373 0.29955,-14.52988 0.71875,-21.78125 -18.32425,-4.70059 -31.875,-21.33469 -31.875,-41.125 0,-23.44268 18.99482,-42.4375 42.4375,-42.4375 z m -3.9375,185.4375 -0.3125,0 0.34375,0.0312 c -0.01,-0.0108 -0.0213,-0.0205 -0.0312,-0.0312 z"
         id="path2833" />
      <path
         transform="matrix(3.4951001,0,0,0.99118019,-1227.1266,341.71463)"
         d="m 543.42335,304.66861 c 0,8.08961 -11.80426,14.64753 -26.36555,14.64753 -14.56129,0 -26.36555,-6.55792 -26.36555,-14.64753 0,-8.08961 11.80426,-14.64753 26.36555,-14.64753 14.56129,0 26.36555,6.55792 26.36555,14.64753 z"
         sodipodi:ry="14.64753"
         sodipodi:rx="26.365553"
         sodipodi:cy="304.66861"
         sodipodi:cx="517.0578"
         id="path2835"
         style="fill:#000000;fill-opacity:1;fill-rule:nonzero;stroke:#000000;stroke-width:0.30000001;stroke-linecap:round;stroke-miterlimit:4;stroke-opacity:1;stroke-dasharray:none"
         sodipodi:type="arc" />
    </g>
    <path
       style="fill:#000000;fill-opacity:1;fill-rule:nonzero;stroke:#000000;stroke-width:0.36223447;stroke-linecap:round;stroke-miterlimit:4;stroke-opacity:1;stroke-dasharray:none"
       d="m -250.54138,428.41088 c 23.44268,0 42.46875,18.99482 42.46875,42.4375 0,22.30645 -17.22927,40.59216 -39.09375,42.3125 -0.37952,6.86567 -0.55862,13.71916 -0.6875,20.59375 -0.001,0.33274 0.002,0.66725 0,1 l 8.03125,-0.4375 c 6.05038,7.07393 13.61895,12.75822 21.21875,18.0625 5.126,3.09134 9.87185,6.62857 14.46875,10.4375 l -14.34375,1.21875 c -4.39138,-3.83638 -9.173,-7.12303 -14.03125,-10.34375 -5.27734,-3.82701 -10.55715,-7.7624 -15.40625,-12.15625 -0.0663,7.43573 -0.12641,14.87981 0.0937,22.3125 0.4182,9.18621 0.79839,18.37451 1.65625,27.53125 0.37528,6.31594 1.19499,12.56476 1.9375,18.84375 l 1.78125,-0.15625 c 4.84983,5.79027 9.32538,11.85457 14.125,17.6875 5.13608,6.06898 10.6956,11.76823 16,17.6875 3.2502,4.11604 7.06852,7.66792 10.78125,11.34375 l -14.3125,1.125 c -3.69714,-3.65942 -7.31071,-7.36638 -10.5625,-11.4375 -5.27056,-5.95582 -10.85475,-11.62822 -15.9375,-17.75 -2.54131,-3.12382 -4.96998,-6.35517 -7.5,-9.5 -3.77472,4.10648 -7.74529,8.05806 -11.59375,12.09375 -5.42883,5.92425 -10.04564,12.48916 -14.15625,19.375 -2.27185,4.01318 -4.63126,7.95632 -8.65624,10.375 -1.62304,0.86036 -0.80233,0.45839 -2.40625,1.25 l -14.375,-1.65625 c 1.62896,-0.686 0.79655,-0.29169 2.4375,-1.15625 4.25186,-1.8433 6.57549,-5.67633 8.84375,-9.5625 4.22509,-6.92749 8.87356,-13.59229 14.24999,-19.6875 5.16882,-5.55306 10.94951,-10.62028 15.4375,-16.78125 l 2.0625,0.15625 -0.3125,-2 c -0.66375,-6.71396 -1.54552,-13.38607 -1.9375,-20.125 -0.77928,-9.18834 -1.01773,-18.41435 -1.4375,-27.625 -0.21352,-6.19866 -0.24856,-12.392 -0.21875,-18.59375 -0.0318,0.0208 -0.0619,0.0418 -0.0937,0.0625 -5.61159,2.97677 -10.96312,6.4158 -16.09374,10.15625 -4.49994,3.52972 -8.35274,7.79074 -12.46875,11.75 -2.53642,2.52555 -5.45366,4.57454 -8.125,6.9375 -1.29529,1.0294 -2.62603,2.01443 -3.90625,3.0625 l -14.4375,-1.21875 c 1.20736,-1.14731 2.57197,-2.14197 3.9375,-3.09375 2.71923,-2.35306 5.59189,-4.43109 8.28125,-6.84375 4.19342,-3.97727 8.12978,-8.23589 12.59375,-11.90625 5.05709,-3.81933 10.38597,-7.33403 16,-10.28125 4.12213,-2.48926 7.84872,-5.55591 10.43749,-9.6875 l 3.96875,0.25 c 0.003,-0.2397 -0.003,-0.47906 0,-0.71875 0.0993,-7.26373 0.29955,-14.52988 0.71875,-21.78125 -18.32424,-4.70059 -31.87499,-21.33469 -31.87499,-41.125 0,-23.44268 18.99481,-42.4375 42.43749,-42.4375 z m -3.9375,185.4375 -0.3125,0 0.34375,0.0312 c -0.01,-0.0108 -0.0213,-0.0205 -0.0312,-0.0312 z"
       id="path2837" />
    <g
       id="g3737"
       transform="matrix(0.71692781,0,0,0.71692781,-87.465601,305.17758)">
      <path
         style="fill:#000000;fill-opacity:1;fill-rule:nonzero;stroke:#000000;stroke-width:0.21640134;stroke-linecap:round;stroke-miterlimit:4;stroke-opacity:1;stroke-dasharray:none"
         d="m 577.41024,902.02386 c -14.00482,0 -25.37113,11.34763 -25.37113,25.35245 0,13.32603 10.29289,24.25003 23.35488,25.27778 0.22673,4.10159 0.33372,8.19592 0.41071,12.30284 6e-4,0.19878 -10e-4,0.39862 0,0.59741 l -4.79792,-0.26137 c -3.61454,4.22602 -8.13605,7.62185 -12.67622,10.79066 -3.06231,1.84679 -5.89752,3.95996 -8.64373,6.23544 l 8.56905,0.72809 c 2.62344,-2.29188 5.48001,-4.25535 8.38236,-6.17943 3.15272,-2.28628 6.30692,-4.63731 9.2038,-7.26223 0.0396,4.44216 0.0755,8.8893 -0.056,13.32964 -0.24984,5.48791 -0.47697,10.97706 -0.98946,16.44736 -0.22419,3.7732 -0.71389,7.5063 -1.15748,11.2574 l -1.06413,-0.093 c -2.89732,3.4591 -5.57104,7.082 -8.43837,10.5666 -3.06833,3.6257 -6.38962,7.0304 -9.55851,10.5667 -1.94169,2.4589 -4.22278,4.5808 -6.44079,6.7768 l 8.55039,0.6721 c 2.20869,-2.1862 4.36746,-4.4008 6.31011,-6.8329 3.14866,-3.558 6.4847,-6.9468 9.52117,-10.6039 1.51819,-1.8662 2.9691,-3.7967 4.48055,-5.6754 2.25504,2.4532 4.62709,4.8139 6.92618,7.2249 3.24322,3.5392 6.00134,7.4611 8.45704,11.5747 1.35723,2.3975 2.76676,4.7532 5.17131,6.1981 0.96961,0.514 0.47931,0.2739 1.43751,0.7468 l 8.58772,-0.9895 c -0.97315,-0.4098 -0.47586,-0.1742 -1.45618,-0.6907 -2.54009,-1.1012 -3.92824,-3.3911 -5.28332,-5.7127 -2.52409,-4.1385 -5.30112,-8.1201 -8.51304,-11.7615 -3.08789,-3.3174 -6.54131,-6.3446 -9.22247,-10.0252 l -1.23215,0.093 0.18669,-1.1948 c 0.39653,-4.011 0.9233,-7.9969 1.15747,-12.02281 0.46555,-5.48918 0.608,-11.00086 0.85878,-16.50337 0.12755,-3.70312 0.14849,-7.40306 0.13068,-11.10803 0.019,0.0124 0.037,0.025 0.056,0.0373 3.3524,1.77834 6.54944,3.83284 9.61451,6.06741 2.6883,2.10868 4.98998,4.65424 7.44892,7.01953 1.51527,1.50878 3.25805,2.73286 4.85393,4.14451 0.77381,0.61497 1.56881,1.20344 2.33362,1.82956 l 8.62506,-0.72809 c -0.72129,-0.68541 -1.53651,-1.27963 -2.35229,-1.84823 -1.62449,-1.40573 -3.34063,-2.64716 -4.94728,-4.0885 -2.50517,-2.37605 -4.85678,-4.92018 -7.52359,-7.11288 -3.02114,-2.28169 -6.20465,-4.38139 -9.55851,-6.14208 -2.46259,-1.48711 -4.68888,-3.31914 -6.23543,-5.78738 l -2.37096,0.14935 c -0.002,-0.1432 0.002,-0.28619 0,-0.42939 -0.0593,-4.3394 -0.17895,-8.68025 -0.42938,-13.01226 10.94703,-2.80817 19.04234,-12.74549 19.04234,-24.56836 0,-14.00482 -11.34764,-25.35245 -25.35245,-25.35245 z m 2.35228,110.78164 0.18669,0 -0.20535,0.019 c 0.006,-0.01 0.0127,-0.012 0.0186,-0.019 z"
         id="path2839" />
      <path
         id="path2841"
         d="m 424.22991,898.52365 c 14.00481,0 25.37112,11.34763 25.37112,25.35245 0,13.32602 -10.29289,24.25003 -23.35488,25.27777 -0.22672,4.1016 -0.33372,8.19592 -0.41071,12.30285 -6e-4,0.19878 10e-4,0.39862 0,0.59741 l 4.79792,-0.26137 c 3.61454,4.22602 8.13605,7.62185 12.67623,10.79066 3.0623,1.84679 5.89751,3.95996 8.64373,6.23544 l -8.56906,0.72809 c -2.62344,-2.29188 -5.48001,-4.25535 -8.38236,-6.17943 -3.15272,-2.28628 -6.30692,-4.63731 -9.2038,-7.26223 -0.0396,4.44216 -0.0755,8.8893 0.056,13.32964 0.24983,5.48791 0.47696,10.97706 0.98945,16.44736 0.2242,3.77318 0.7139,7.50631 1.15748,11.25741 l 1.06413,-0.093 c 2.89732,3.4591 5.57104,7.082 8.43837,10.5666 3.06833,3.6256 6.38962,7.0304 9.55851,10.5666 1.94169,2.459 4.22278,4.5809 6.44079,6.7769 l -8.55038,0.672 c -2.2087,-2.1861 -4.36747,-4.4007 -6.31011,-6.8328 -3.14867,-3.558 -6.48471,-6.9468 -9.52117,-10.604 -1.5182,-1.8662 -2.9691,-3.7966 -4.48056,-5.6753 -2.25504,2.4532 -4.62709,4.8139 -6.92618,7.2249 -3.24322,3.5391 -6.00134,7.4611 -8.45704,11.5747 -1.35723,2.3975 -2.76675,4.7532 -5.1713,6.1981 -0.96962,0.514 -0.47932,0.2739 -1.43751,0.7468 l -8.58773,-0.9895 c 0.97315,-0.4098 0.47587,-0.1742 1.45618,-0.6907 2.54009,-1.1012 3.92824,-3.3911 5.28332,-5.7127 2.5241,-4.1386 5.30112,-8.1202 8.51305,-11.7615 3.08788,-3.3174 6.54131,-6.3446 9.22246,-10.0252 l 1.23215,0.093 -0.18668,-1.1948 c -0.39653,-4.011 -0.92331,-7.99696 -1.15748,-12.02285 -0.46555,-5.48917 -0.608,-11.00085 -0.85877,-16.50336 -0.12756,-3.70312 -0.14849,-7.40306 -0.13069,-11.10803 -0.019,0.0124 -0.037,0.025 -0.056,0.0373 -3.3524,1.77834 -6.54945,3.83284 -9.61452,6.06741 -2.68829,2.10868 -4.98998,4.65424 -7.44891,7.01953 -1.51528,1.50878 -3.25806,2.73286 -4.85394,4.14451 -0.77381,0.61497 -1.5688,1.20343 -2.33362,1.82956 l -8.62506,-0.72809 c 0.72129,-0.68541 1.53652,-1.27963 2.35229,-1.84823 1.62449,-1.40573 3.34064,-2.64716 4.94728,-4.0885 2.50518,-2.37605 4.85678,-4.92018 7.52359,-7.11288 3.02114,-2.28169 6.20465,-4.3814 9.55851,-6.14209 2.46259,-1.4871 4.68888,-3.31914 6.23543,-5.78738 l 2.37096,0.14936 c 0.002,-0.1432 -0.002,-0.2862 0,-0.42939 0.0593,-4.3394 0.17895,-8.68025 0.42939,-13.01227 -10.94703,-2.80816 -19.04235,-12.74549 -19.04235,-24.56835 0,-14.00482 11.34764,-25.35245 25.35246,-25.35245 z m -2.35229,110.78165 -0.18669,0 0.20536,0.019 c -0.006,-0.01 -0.0127,-0.012 -0.0186,-0.019 z"
         style="fill:#000000;fill-opacity:1;fill-rule:nonzero;stroke:#000000;stroke-width:0.21640134;stroke-linecap:round;stroke-miterlimit:4;stroke-opacity:1;stroke-dasharray:none" />
      <path
         sodipodi:type="arc"
         style="fill:#000000;fill-opacity:1;fill-rule:nonzero;stroke:#000000;stroke-width:0.30000001;stroke-linecap:round;stroke-miterlimit:4;stroke-opacity:1;stroke-dasharray:none"
         id="path2843"
         sodipodi:cx="517.0578"
         sodipodi:cy="304.66861"
         sodipodi:rx="26.365553"
         sodipodi:ry="14.64753"
         d="m 543.42335,304.66861 c 0,8.08961 -11.80426,14.64753 -26.36555,14.64753 -14.56129,0 -26.36555,-6.55792 -26.36555,-14.64753 0,-8.08961 11.80426,-14.64753 26.36555,-14.64753 14.56129,0 26.36555,6.55792 26.36555,14.64753 z"
         transform="matrix(2.0879966,0,0,0.5921378,-577.46428,799.47784)" />
    </g>
    <g
       transform="translate(0,-89.532706)"
       id="g3697">
      <rect
         y="924.04572"
         x="0.93425512"
         height="127.56499"
         width="118.77647"
         id="rect3699"
         style="fill:#f9f9f9;fill-opacity:1;fill-rule:nonzero;stroke:#000000;stroke-width:1.86851025;stroke-linecap:round;stroke-miterlimit:4;stroke-opacity:1;stroke-dasharray:none" />
      <path
         sodipodi:nodetypes="ccccc"
         id="path3701"
         d="m 0.11686003,874.27671 120.14911997,0 41.03999,58.65639 -161.18910997,0 0,-58.65639 z"
         style="fill:#000000;fill-opacity:1;fill-rule:nonzero;stroke:#000000;stroke-width:0.23372006;stroke-linecap:round;stroke-miterlimit:4;stroke-opacity:1" />
    </g>
    <g
       id="g3693"
       transform="translate(0,32.041789)">
      <rect
         style="fill:#f9f9f9;fill-opacity:1;fill-rule:nonzero;stroke:#000000;stroke-width:1.86851025;stroke-linecap:round;stroke-miterlimit:4;stroke-opacity:1;stroke-dasharray:none"
         id="rect3675"
         width="118.77647"
         height="127.56499"
         x="0.93425512"
         y="924.04572" />
      <path
         style="fill:#000000;fill-opacity:1;fill-rule:nonzero;stroke:#000000;stroke-width:0.23372006;stroke-linecap:round;stroke-miterlimit:4;stroke-opacity:1"
         d="m 0.11686003,874.27671 120.14911997,0 41.03999,58.65639 -161.18910997,0 0,-58.65639 z"
         id="path3677"
         sodipodi:nodetypes="ccccc" />
    </g>
    <text
       xml:space="preserve"
       style="font-size:25.06812286px;font-style:normal;font-weight:normal;fill:#000000;fill-opacity:1;stroke:none;font-family:Bitstream Vera Sans"
       x="22.313972"
       y="411.01184"
       id="text3742"><tspan
         sodipodi:role="line"
         id="tspan3744"
         x="22.313972"
         y="411.01184">fase 1</tspan></text>
    <text
       id="text3746"
       y="520.86829"
       x="22.313972"
       style="font-size:25.06812286px;font-style:normal;font-weight:normal;fill:#000000;fill-opacity:1;stroke:none;font-family:Bitstream Vera Sans"
       xml:space="preserve"><tspan
         y="520.86829"
         x="22.313972"
         id="tspan3748"
         sodipodi:role="line">fase 2</tspan></text>
    <text
       xml:space="preserve"
       style="font-size:25.06812286px;font-style:normal;font-weight:normal;fill:#000000;fill-opacity:1;stroke:none;font-family:Bitstream Vera Sans"
       x="22.313972"
       y="648.30182"
       id="text3750"><tspan
         sodipodi:role="line"
         id="tspan3752"
         x="22.313972"
         y="648.30182">fase 3</tspan></text>
    <text
       id="text3754"
       y="764.01727"
       x="22.313972"
       style="font-size:25.06812286px;font-style:normal;font-weight:normal;fill:#000000;fill-opacity:1;stroke:none;font-family:Bitstream Vera Sans"
       xml:space="preserve"><tspan
         y="764.01727"
         x="22.313972"
         id="tspan3756"
         sodipodi:role="line">fase 4</tspan></text>
    <text
       xml:space="preserve"
       style="font-size:25.06812286px;font-style:normal;font-weight:normal;fill:#000000;fill-opacity:1;stroke:none;font-family:Bitstream Vera Sans"
       x="22.313972"
       y="881.19751"
       id="text3758"><tspan
         sodipodi:role="line"
         id="tspan3760"
         x="22.313972"
         y="881.19751">fase 5</tspan></text>
    <rect
       style="fill:#f9f9f9;fill-opacity:1;fill-rule:nonzero;stroke:#000000;stroke-width:2.29524088;stroke-linecap:round;stroke-miterlimit:4;stroke-opacity:1;stroke-dasharray:none"
       id="rect3762"
       width="278.00781"
       height="198.91116"
       x="818.69122"
       y="784.46008"
       ry="28.239277"
       rx="28.239277" />
    <path
       style="fill:#d40000;fill-opacity:1;fill-rule:nonzero;stroke:#000000;stroke-width:1.20615578;stroke-linecap:round;stroke-miterlimit:4;stroke-opacity:1;stroke-dasharray:none"
       d="m 896.25918,808.80246 0,37.10813 -37.10813,0 0,24.7262 37.10813,0 0,37.10813 24.7262,0 0,-37.10813 37.10813,0 0,-24.7262 -37.10813,0 0,-37.10813 -24.7262,0 z"
       id="rect3764" />
    <path
       sodipodi:type="arc"
       style="fill:#000000;fill-opacity:1;fill-rule:nonzero;stroke:#000000;stroke-width:2;stroke-linecap:round;stroke-miterlimit:4;stroke-opacity:1;stroke-dasharray:none"
       id="path3769"
       sodipodi:cx="539.02905"
       sodipodi:cy="631.30853"
       sodipodi:rx="45.407341"
       sodipodi:ry="45.407341"
       d="m 584.43639,631.30853 a 45.407341,45.407341 0 1 1 -90.81468,0 45.407341,45.407341 0 1 1 90.81468,0 z"
       transform="translate(370.32922,375.64633)" />
    <text
       xml:space="preserve"
       style="font-size:40px;font-style:normal;font-weight:normal;fill:#000000;fill-opacity:1;stroke:none;font-family:Bitstream Vera Sans"
       x="845.16241"
       y="513.33307"
       id="text3771"><tspan
         sodipodi:role="line"
         id="tspan3773"
         x="845.16241"
         y="513.33307">babies</tspan><tspan
         sodipodi:role="line"
         x="845.16241"
         y="563.33307"
         id="tspan3775">cats</tspan><tspan
         sodipodi:role="line"
         x="845.16241"
         y="613.33307"
         id="tspan3779">dogs</tspan></text>
  </g>
</svg>
